<svg xmlns="http://www.w3.org/2000/svg" version="1.1" xmlns:xlink="http://www.w3.org/1999/xlink" xmlns:svgjs="http://svgjs.dev/svgjs" width="2000" height="636" viewBox="0 0 2000 636"><g transform="matrix(1,0,0,1,-1.2121212121212466,0.12777556099200638)"><svg viewBox="0 0 396 126" data-background-color="#d1abff" preserveAspectRatio="xMidYMid meet" height="636" width="2000" xmlns="http://www.w3.org/2000/svg" xmlns:xlink="http://www.w3.org/1999/xlink"><g id="tight-bounds" transform="matrix(1,0,0,1,0.2400000000000091,-0.025314026234269704)"><svg viewBox="0 0 395.52 126.05062805246857" height="126.05062805246857" width="395.52"><g><svg viewBox="0 0 674.13606572256 214.8444439652835" height="126.05062805246857" width="395.52"><g transform="matrix(1,0,0,1,278.6160657225601,7.259847461353573)"><svg viewBox="0 0 395.52 200.32474904257634" height="200.32474904257634" width="395.52"><g id="textblocktransform"><svg viewBox="0 0 395.52 200.32474904257634" height="200.32474904257634" width="395.52" id="textblock"><g><svg viewBox="0 0 395.52 135.06587234042553" height="135.06587234042553" width="395.52"><g transform="matrix(1,0,0,1,0,0)"><svg width="395.52" viewBox="1.56 -37.52 114.74 39.18" height="135.06587234042553" data-palette-color="#712689"><g class="wordmark-text-0" data-fill-palette-color="primary" id="text-0"><path d="M27.47-33.89L35.08-35.94Q35.21-35.96 35.31-35.97 35.42-35.99 35.52-35.99L35.52-35.99Q35.96-35.99 36.23-35.71 36.5-35.42 36.6-34.72L36.6-34.72Q36.65-34.28 36.76-33.48 36.87-32.69 37-31.73 37.13-30.76 37.29-29.74 37.45-28.71 37.57-27.84 37.7-26.98 37.79-26.35 37.89-25.73 37.92-25.56L37.92-25.56Q38.45-21.24 38.87-18.63 39.28-16.02 39.45-14.77L39.45-14.77 41.09-1.56 40.84-0.81Q40.8-0.63 40.21-0.39 39.62-0.15 38.79 0.13 37.96 0.42 36.99 0.68 36.01 0.95 35.18 1.17 34.35 1.39 33.78 1.53 33.2 1.66 33.18 1.66L33.18 1.66Q32.59 1.66 32.25 0.81 31.91-0.05 31.69-1.37 31.47-2.69 31.34-4.25 31.2-5.81 31.03-7.25L31.03-7.25Q30.88-8.45 30.76-9.67 30.64-10.89 30.49-12.16L30.49-12.16 29.54-19.29 20.48-2.71Q20.07-2.12 19.65-1.87 19.24-1.61 18.87-1.61L18.87-1.61Q18.33-1.61 18.03-1.93 17.72-2.25 17.6-2.71L17.6-2.71Q17.14-4.25 16.81-5.31 16.48-6.37 16.2-7.25 15.92-8.13 15.67-8.96 15.43-9.79 15.12-10.88 14.82-11.96 14.44-13.44 14.06-14.92 13.53-17.07L13.53-17.07 12.77-13.55 9.25 1.37Q9.18 1.66 8.64 1.66L8.64 1.66Q8.13 1.66 7.24 1.46 6.35 1.27 5.38 0.99 4.42 0.71 3.5 0.4 2.59 0.1 2.05-0.15L2.05-0.15Q1.93-0.2 1.75-0.38 1.56-0.56 1.56-0.95L1.56-0.95Q1.56-1.05 1.64-1.37 1.71-1.68 1.82-2.11 1.93-2.54 2.06-2.98 2.2-3.42 2.32-3.76L2.32-3.76Q2.64-4.59 2.89-5.71 3.15-6.84 3.37-7.98 3.59-9.13 3.77-10.18 3.96-11.23 4.13-11.94L4.13-11.94 7.13-25.95 8.03-29.91Q8.2-30.66 8.36-31.38 8.52-32.1 8.64-32.69 8.76-33.28 8.84-33.64 8.91-34.01 8.91-34.06L8.91-34.06 15.01-35.94Q15.36-35.94 15.61-35.88 15.87-35.82 15.94-35.47L15.94-35.47 20.8-19.85 27.47-33.89ZM75.1-13.94L75.1-13.94Q75.05-13.75 74.96-13.38 74.88-13.01 74.79-12.54 74.7-12.06 74.59-11.5 74.48-10.94 74.39-10.4L74.39-10.4 73.83-7.62Q73.75-7.25 73.63-7.07 73.51-6.88 73.08-6.81 72.65-6.74 71.82-6.74 70.99-6.74 69.5-6.74L69.5-6.74 69.06-2.27Q69.04-2.05 68.97-1.83 68.89-1.61 68.65-1.51L68.65-1.51Q68.48-1.44 67.86-1.2 67.23-0.95 66.38-0.63 65.52-0.32 64.55 0.04 63.57 0.39 62.69 0.68 61.81 0.98 61.13 1.17 60.45 1.37 60.2 1.37L60.2 1.37Q59.86 1.37 59.6 1.18 59.35 1 59.35 0.49L59.35 0.49Q59.35-0.68 59.46-2.48 59.57-4.27 59.76-6.64L59.76-6.64Q57.69-6.62 55.66-6.59 53.64-6.57 51.89-6.56 50.14-6.54 48.83-6.54 47.51-6.54 46.85-6.54L46.85-6.54Q44.7-6.54 43.75-6.69 42.8-6.84 42.8-7.37L42.8-7.37Q42.8-7.67 43.04-8.06L43.04-8.06Q43.26-8.42 43.85-9.4 44.43-10.38 45.25-11.73 46.07-13.09 47.03-14.69 48-16.28 48.97-17.9L48.97-17.9 54.05-26.27Q54.98-27.81 55.7-29.28 56.42-30.76 57.29-31.98 58.15-33.2 59.36-34.11 60.57-35.01 62.52-35.4L62.52-35.4 70.24-37.43Q70.6-37.52 70.9-37.52L70.9-37.52Q71.16-37.52 71.32-37.37 71.48-37.21 71.48-36.74L71.48-36.74 71.48-36.47Q71.38-34.2 71.29-32.37 71.19-30.54 71.09-28.91 70.99-27.27 70.88-25.74 70.77-24.22 70.68-22.58 70.58-20.95 70.48-19.1 70.38-17.26 70.29-14.99L70.29-14.99Q71.92-15.04 72.98-15.06 74.05-15.09 74.24-15.09L74.24-15.09Q74.53-15.04 74.83-14.88 75.12-14.72 75.12-14.21L75.12-14.21Q75.12-14.01 75.1-13.94ZM52.88-14.67L60.45-14.67Q60.74-16.36 60.96-18.23 61.18-20.09 61.33-22.02 61.47-23.95 61.58-25.85 61.69-27.76 61.77-29.54L61.77-29.54 52.88-14.67ZM102.68-33.89L110.3-35.94Q110.42-35.96 110.53-35.97 110.64-35.99 110.74-35.99L110.74-35.99Q111.18-35.99 111.45-35.71 111.71-35.42 111.81-34.72L111.81-34.72Q111.86-34.28 111.97-33.48 112.08-32.69 112.21-31.73 112.35-30.76 112.51-29.74 112.67-28.71 112.79-27.84 112.91-26.98 113.01-26.35 113.11-25.73 113.13-25.56L113.13-25.56Q113.67-21.24 114.08-18.63 114.5-16.02 114.67-14.77L114.67-14.77 116.3-1.56 116.06-0.81Q116.01-0.63 115.42-0.39 114.84-0.15 114.01 0.13 113.18 0.42 112.2 0.68 111.23 0.95 110.4 1.17 109.57 1.39 108.99 1.53 108.42 1.66 108.39 1.66L108.39 1.66Q107.81 1.66 107.47 0.81 107.12-0.05 106.9-1.37 106.68-2.69 106.55-4.25 106.42-5.81 106.25-7.25L106.25-7.25Q106.1-8.45 105.98-9.67 105.85-10.89 105.71-12.16L105.71-12.16 104.76-19.29 95.7-2.71Q95.28-2.12 94.87-1.87 94.45-1.61 94.09-1.61L94.09-1.61Q93.55-1.61 93.24-1.93 92.94-2.25 92.82-2.71L92.82-2.71Q92.35-4.25 92.02-5.31 91.69-6.37 91.41-7.25 91.13-8.13 90.89-8.96 90.64-9.79 90.34-10.88 90.03-11.96 89.66-13.44 89.28-14.92 88.74-17.07L88.74-17.07 87.98-13.55 84.47 1.37Q84.39 1.66 83.86 1.66L83.86 1.66Q83.34 1.66 82.45 1.46 81.56 1.27 80.6 0.99 79.63 0.71 78.72 0.4 77.8 0.1 77.27-0.15L77.27-0.15Q77.14-0.2 76.96-0.38 76.78-0.56 76.78-0.95L76.78-0.95Q76.78-1.05 76.85-1.37 76.92-1.68 77.03-2.11 77.14-2.54 77.28-2.98 77.41-3.42 77.53-3.76L77.53-3.76Q77.85-4.59 78.11-5.71 78.36-6.84 78.58-7.98 78.8-9.13 78.99-10.18 79.17-11.23 79.34-11.94L79.34-11.94 82.34-25.95 83.25-29.91Q83.42-30.66 83.58-31.38 83.74-32.1 83.86-32.69 83.98-33.28 84.05-33.64 84.13-34.01 84.13-34.06L84.13-34.06 90.23-35.94Q90.57-35.94 90.83-35.88 91.08-35.82 91.16-35.47L91.16-35.47 96.02-19.85 102.68-33.89Z" fill="#712689" data-fill-palette-color="primary"></path></g></svg></g></svg></g><g transform="matrix(1,0,0,1,0,166.95168321906382)"><svg viewBox="0 0 232.209792 33.373065823512505" height="33.373065823512505" width="232.209792"><g transform="matrix(1,0,0,1,0,0)"><svg width="232.209792" viewBox="1.05 -37.5 347.86 50" height="33.373065823512505" data-palette-color="#712689"><path d="M23.1 0L17.75 0 13.3-25.7 9.25 0 6.25 0 11.75-35Q8.6-34.3 6.9-31.98 5.2-29.65 5.2-25.45L5.2-25.45Q5.2-23.75 5.43-22.68 5.65-21.6 5.95-20.95 6.25-20.3 6.58-20.03 6.9-19.75 7.05-19.65L7.05-19.65Q4.35-19.65 2.7-21.03 1.05-22.4 1.05-25.35L1.05-25.35Q1.05-27.8 2.25-30.03 3.45-32.25 5.3-33.9 7.15-35.55 9.38-36.52 11.6-37.5 13.7-37.5L13.7-37.5Q14.5-37.5 15.28-37.35 16.05-37.2 16.75-36.8L16.75-36.8 21.75-7.75 27.6-36.8 33.3-36.8 36.1 0 30.4 0 28.4-26.2 23.1 0ZM49.05-25.25L49.05-25.25Q51-25.25 52.4-24.65 53.8-24.05 54.7-22.98 55.6-21.9 56.12-20.45 56.65-19 56.9-17.35L56.9-17.35 57.2-17.35Q59.3-17.35 61.05-18.2 62.8-19.05 64.05-20.35L64.05-20.35 64.8-19Q63.8-17.4 61.62-16.35 59.45-15.3 57.15-14.9L57.15-14.9Q57.15-14.4 57.17-13.9 57.2-13.4 57.2-12.85L57.2-12.85Q57.2-6.7 54.95-3.2 52.7 0.3 48.65 0.3L48.65 0.3Q47 0.3 45.32-0.3 43.65-0.9 42.3-2.3 40.95-3.7 40.12-5.9 39.3-8.1 39.3-11.35L39.3-11.35Q39.3-13.55 39.77-16 40.25-18.45 41.37-20.5 42.5-22.55 44.37-23.9 46.25-25.25 49.05-25.25ZM49.55-3.5L49.55-3.5Q52.2-3.5 53.45-6.13 54.7-8.75 54.7-13.55L54.7-13.55Q54.7-13.85 54.7-14.15 54.7-14.45 54.65-14.75L54.65-14.75Q53.2-14.85 52.57-15.4 51.95-15.95 51.95-17.25L51.95-17.25Q51.95-18.4 52.45-18.88 52.95-19.35 53.95-19.4L53.95-19.4Q53.35-21.15 52.42-21.83 51.5-22.5 50.35-22.5L50.35-22.5Q48.8-22.5 47.72-21.48 46.65-20.45 45.97-18.85 45.3-17.25 45-15.33 44.7-13.4 44.7-11.55L44.7-11.55Q44.7-9.1 45.15-7.55 45.6-6 46.3-5.1 47-4.2 47.85-3.85 48.7-3.5 49.55-3.5ZM60.85-25L65.85-25 65.85-21.2Q66.6-22.55 67.37-23.38 68.15-24.2 68.95-24.6 69.75-25 70.47-25.13 71.2-25.25 71.85-25.25L71.85-25.25Q74.1-25.25 75.47-24.4 76.85-23.55 77.55-22.23 78.25-20.9 78.47-19.33 78.7-17.75 78.7-16.3L78.7-16.3Q78.7-15.4 78.65-14.33 78.6-13.25 78.55-12.13 78.5-11 78.45-9.88 78.4-8.75 78.4-7.8L78.4-7.8Q78.4-7.4 78.45-6.68 78.5-5.95 78.7-5.25 78.9-4.55 79.35-4.03 79.8-3.5 80.65-3.5L80.65-3.5Q81.8-3.5 82.72-4.8 83.65-6.1 84.25-8.95L84.25-8.95 86.1-8.95Q85.55-5.8 84.7-3.98 83.85-2.15 82.9-1.2 81.95-0.25 81 0.03 80.05 0.3 79.25 0.3L79.25 0.3Q77.65 0.3 76.55-0.33 75.45-0.95 74.75-2 74.05-3.05 73.72-4.45 73.4-5.85 73.4-7.35L73.4-7.35Q73.4-7.8 73.42-9.03 73.45-10.25 73.47-11.65 73.5-13.05 73.52-14.3 73.55-15.55 73.55-16.05L73.55-16.05Q73.55-17.65 73.3-18.7 73.05-19.75 72.6-20.35 72.15-20.95 71.57-21.2 71-21.45 70.35-21.45L70.35-21.45Q68.8-21.45 67.67-20.2 66.55-18.95 65.85-16L65.85-16 65.85 0 60.85 0 60.85-25ZM99.84-18.75L99.84-18.75Q99.84-15.25 96.97-12.9 94.09-10.55 88.99-10L88.99-10Q89.19-8 89.72-6.75 90.24-5.5 90.99-4.78 91.74-4.05 92.72-3.78 93.69-3.5 94.74-3.5L94.74-3.5Q97.14-3.5 99.24-4.75 101.34-6 102.64-8.95L102.64-8.95 104.24-8.95Q103.59-7.1 102.44-5.43 101.29-3.75 99.74-2.48 98.19-1.2 96.39-0.45 94.59 0.3 92.69 0.3L92.69 0.3Q90.94 0.3 89.32-0.3 87.69-0.9 86.44-2.27 85.19-3.65 84.42-5.85 83.64-8.05 83.64-11.25L83.64-11.25Q83.64-13.35 84.12-15.8 84.59-18.25 85.72-20.35 86.84-22.45 88.67-23.85 90.49-25.25 93.19-25.25L93.19-25.25Q94.44-25.25 95.62-24.98 96.79-24.7 97.74-23.98 98.69-23.25 99.27-22 99.84-20.75 99.84-18.75ZM88.94-11.95L88.94-11.95Q92.49-12.5 94.57-14.45 96.64-16.4 96.64-19.25L96.64-19.25Q96.64-21.15 95.99-21.98 95.34-22.8 94.14-22.8L94.14-22.8Q92.84-22.8 91.87-21.8 90.89-20.8 90.24-19.23 89.59-17.65 89.27-15.73 88.94-13.8 88.94-11.95ZM114.49-25L119.49-25 119.49-1.05Q120.74-1.45 121.72-1.95 122.69-2.45 123.42-3.3 124.14-4.15 124.62-5.5 125.09-6.85 125.34-8.95L125.34-8.95 127.19-8.95Q126.79-6.3 126.17-4.63 125.54-2.95 124.62-1.93 123.69-0.9 122.42-0.33 121.14 0.25 119.49 0.75L119.49 0.75 119.49 3.95Q119.49 6.3 118.99 7.93 118.49 9.55 117.62 10.58 116.74 11.6 115.62 12.05 114.49 12.5 113.24 12.5L113.24 12.5Q110.74 12.5 109.34 11.08 107.94 9.65 107.94 7.6L107.94 7.6Q107.94 6.3 108.52 5.25 109.09 4.2 110.02 3.33 110.94 2.45 112.12 1.78 113.29 1.1 114.49 0.6L114.49 0.6 114.49-2.55Q113.49-1.1 112.22-0.4 110.94 0.3 109.64 0.3L109.64 0.3Q108.19 0.3 106.89-0.1 105.59-0.5 104.64-1.43 103.69-2.35 103.14-3.83 102.59-5.3 102.59-7.45L102.59-7.45 102.59-25 107.59-25 107.59-8Q107.59-5.55 108.44-4.53 109.29-3.5 110.59-3.5L110.59-3.5Q111.29-3.5 111.99-3.85 112.69-4.2 113.24-4.88 113.79-5.55 114.14-6.5 114.49-7.45 114.49-8.7L114.49-8.7 114.49-25ZM112.29 9.9L112.29 9.9Q113.64 9.9 114.07 8.88 114.49 7.85 114.49 6.1L114.49 6.1 114.49 2.6Q111.99 3.75 110.94 4.88 109.89 6 109.89 7.4L109.89 7.4Q109.89 8.55 110.52 9.22 111.14 9.9 112.29 9.9ZM141.04-27.4L141.04-25 145.09-25 145.09-23.25 141.04-23.25 141.04 4Q141.04 6.65 140.51 8.3 139.99 9.95 139.14 10.9 138.29 11.85 137.16 12.18 136.04 12.5 134.79 12.5L134.79 12.5Q132.09 12.5 130.81 11.25 129.54 10 129.54 7.65L129.54 7.65Q129.54 6.4 130.11 5.35 130.69 4.3 131.61 3.43 132.54 2.55 133.69 1.88 134.84 1.2 136.04 0.7L136.04 0.7 136.04-28.8Q136.04-33.15 138.09-35.33 140.14-37.5 143.34-37.5L143.34-37.5Q144.84-37.5 146.09-37.05 147.34-36.6 148.29-35.65 149.24-34.7 149.76-33.3 150.29-31.9 150.29-30L150.29-30 148.34-30Q148.04-32 147.26-33.15 146.49-34.3 144.69-34.3L144.69-34.3Q143.49-34.3 142.79-33.77 142.09-33.25 141.69-32.35 141.29-31.45 141.16-30.18 141.04-28.9 141.04-27.4L141.04-27.4ZM133.79 9.9L133.79 9.9Q135.24 9.9 135.64 8.35 136.04 6.8 136.04 4.1L136.04 4.1 136.04 2.55Q133.79 3.65 132.64 4.95 131.49 6.25 131.49 7.5L131.49 7.5Q131.49 8.5 132.14 9.2 132.79 9.9 133.79 9.9ZM157.13-25.25L157.13-25.25Q159.08-25.25 160.48-24.65 161.88-24.05 162.78-22.98 163.68-21.9 164.21-20.45 164.73-19 164.98-17.35L164.98-17.35 165.28-17.35Q167.38-17.35 169.13-18.2 170.88-19.05 172.13-20.35L172.13-20.35 172.88-19Q171.88-17.4 169.71-16.35 167.53-15.3 165.23-14.9L165.23-14.9Q165.23-14.4 165.26-13.9 165.28-13.4 165.28-12.85L165.28-12.85Q165.28-6.7 163.03-3.2 160.78 0.3 156.73 0.3L156.73 0.3Q155.08 0.3 153.41-0.3 151.73-0.9 150.38-2.3 149.03-3.7 148.21-5.9 147.38-8.1 147.38-11.35L147.38-11.35Q147.38-13.55 147.86-16 148.33-18.45 149.46-20.5 150.58-22.55 152.46-23.9 154.33-25.25 157.13-25.25ZM157.63-3.5L157.63-3.5Q160.28-3.5 161.53-6.13 162.78-8.75 162.78-13.55L162.78-13.55Q162.78-13.85 162.78-14.15 162.78-14.45 162.73-14.75L162.73-14.75Q161.28-14.85 160.66-15.4 160.03-15.95 160.03-17.25L160.03-17.25Q160.03-18.4 160.53-18.88 161.03-19.35 162.03-19.4L162.03-19.4Q161.43-21.15 160.51-21.83 159.58-22.5 158.43-22.5L158.43-22.5Q156.88-22.5 155.81-21.48 154.73-20.45 154.06-18.85 153.38-17.25 153.08-15.33 152.78-13.4 152.78-11.55L152.78-11.55Q152.78-9.1 153.23-7.55 153.68-6 154.38-5.1 155.08-4.2 155.93-3.85 156.78-3.5 157.63-3.5ZM168.93-25L173.93-25 173.93-20.8Q174.53-21.7 175.1-22.5 175.68-23.3 176.38-23.9 177.08-24.5 177.93-24.88 178.78-25.25 179.83-25.25L179.83-25.25Q181.53-25.25 182.33-24.38 183.13-23.5 183.13-22.25L183.13-22.25Q183.13-21.5 182.88-21 182.63-20.5 182.28-20.2 181.93-19.9 181.53-19.78 181.13-19.65 180.83-19.65L180.83-19.65Q180.38-19.65 180.1-19.85 179.83-20.05 179.56-20.28 179.28-20.5 178.93-20.7 178.58-20.9 178.03-20.9L178.03-20.9Q176.88-20.9 175.83-20.1 174.78-19.3 173.93-18.4L173.93-18.4 173.93 0 168.93 0 168.93-25ZM217.28 0L211.93 0 207.48-25.7 203.43 0 200.43 0 205.93-35Q202.78-34.3 201.08-31.98 199.38-29.65 199.38-25.45L199.38-25.45Q199.38-23.75 199.6-22.68 199.83-21.6 200.13-20.95 200.43-20.3 200.75-20.03 201.08-19.75 201.23-19.65L201.23-19.65Q198.53-19.65 196.88-21.03 195.23-22.4 195.23-25.35L195.23-25.35Q195.23-27.8 196.43-30.03 197.63-32.25 199.48-33.9 201.33-35.55 203.55-36.52 205.78-37.5 207.88-37.5L207.88-37.5Q208.68-37.5 209.45-37.35 210.23-37.2 210.93-36.8L210.93-36.8 215.93-7.75 221.78-36.8 227.48-36.8 230.28 0 224.58 0 222.58-26.2 217.28 0ZM243.22-25.25L243.22-25.25Q245.17-25.25 246.57-24.65 247.97-24.05 248.87-22.98 249.77-21.9 250.3-20.45 250.82-19 251.07-17.35L251.07-17.35 251.37-17.35Q253.47-17.35 255.22-18.2 256.97-19.05 258.22-20.35L258.22-20.35 258.97-19Q257.97-17.4 255.8-16.35 253.62-15.3 251.32-14.9L251.32-14.9Q251.32-14.4 251.35-13.9 251.37-13.4 251.37-12.85L251.37-12.85Q251.37-6.7 249.12-3.2 246.87 0.3 242.82 0.3L242.82 0.3Q241.17 0.3 239.5-0.3 237.82-0.9 236.47-2.3 235.12-3.7 234.3-5.9 233.47-8.1 233.47-11.35L233.47-11.35Q233.47-13.55 233.95-16 234.42-18.45 235.55-20.5 236.67-22.55 238.55-23.9 240.42-25.25 243.22-25.25ZM243.72-3.5L243.72-3.5Q246.37-3.5 247.62-6.13 248.87-8.75 248.87-13.55L248.87-13.55Q248.87-13.85 248.87-14.15 248.87-14.45 248.82-14.75L248.82-14.75Q247.37-14.85 246.75-15.4 246.12-15.95 246.12-17.25L246.12-17.25Q246.12-18.4 246.62-18.88 247.12-19.35 248.12-19.4L248.12-19.4Q247.52-21.15 246.6-21.83 245.67-22.5 244.52-22.5L244.52-22.5Q242.97-22.5 241.9-21.48 240.82-20.45 240.15-18.85 239.47-17.25 239.17-15.33 238.87-13.4 238.87-11.55L238.87-11.55Q238.87-9.1 239.32-7.55 239.77-6 240.47-5.1 241.17-4.2 242.02-3.85 242.87-3.5 243.72-3.5ZM255.02-25L260.02-25 260.02-21.2Q260.77-22.55 261.55-23.38 262.32-24.2 263.12-24.6 263.92-25 264.65-25.13 265.37-25.25 266.02-25.25L266.02-25.25Q268.27-25.25 269.65-24.4 271.02-23.55 271.72-22.23 272.42-20.9 272.65-19.33 272.87-17.75 272.87-16.3L272.87-16.3Q272.87-15.4 272.82-14.33 272.77-13.25 272.72-12.13 272.67-11 272.62-9.88 272.57-8.75 272.57-7.8L272.57-7.8Q272.57-7.4 272.62-6.68 272.67-5.95 272.87-5.25 273.07-4.55 273.52-4.03 273.97-3.5 274.82-3.5L274.82-3.5Q275.97-3.5 276.9-4.8 277.82-6.1 278.42-8.95L278.42-8.95 280.27-8.95Q279.72-5.8 278.87-3.98 278.02-2.15 277.07-1.2 276.12-0.25 275.17 0.03 274.22 0.3 273.42 0.3L273.42 0.3Q271.82 0.3 270.72-0.33 269.62-0.95 268.92-2 268.22-3.05 267.9-4.45 267.57-5.85 267.57-7.35L267.57-7.35Q267.57-7.8 267.6-9.03 267.62-10.25 267.65-11.65 267.67-13.05 267.7-14.3 267.72-15.55 267.72-16.05L267.72-16.05Q267.72-17.65 267.47-18.7 267.22-19.75 266.77-20.35 266.32-20.95 265.75-21.2 265.17-21.45 264.52-21.45L264.52-21.45Q262.97-21.45 261.85-20.2 260.72-18.95 260.02-16L260.02-16 260.02 0 255.02 0 255.02-25ZM278.42-31.9L283.42-32.6 283.42-25 287.27-25 287.27-23.25 283.42-23.25 283.42-8Q283.42-7.4 283.47-6.63 283.52-5.85 283.74-5.15 283.97-4.45 284.44-3.98 284.92-3.5 285.77-3.5L285.77-3.5Q287.12-3.5 288.34-4.85 289.57-6.2 290.27-8.95L290.27-8.95 292.12-8.95Q291.27-5.8 290.29-3.98 289.32-2.15 288.27-1.2 287.22-0.25 286.19 0.03 285.17 0.3 284.32 0.3L284.32 0.3Q282.52 0.3 281.37-0.38 280.22-1.05 279.57-2.1 278.92-3.15 278.67-4.42 278.42-5.7 278.42-6.95L278.42-6.95 278.42-23.25 276.72-23.25 276.72-25 278.42-25 278.42-31.9ZM290.17-34.3L295.17-35 295.17-21.2Q295.92-22.55 296.69-23.38 297.47-24.2 298.27-24.6 299.07-25 299.79-25.13 300.52-25.25 301.17-25.25L301.17-25.25Q303.42-25.25 304.79-24.4 306.17-23.55 306.87-22.23 307.57-20.9 307.79-19.33 308.02-17.75 308.02-16.3L308.02-16.3Q308.02-15.4 307.97-14.33 307.92-13.25 307.87-12.13 307.82-11 307.77-9.88 307.72-8.75 307.72-7.8L307.72-7.8Q307.72-7.4 307.77-6.68 307.82-5.95 308.02-5.25 308.22-4.55 308.67-4.03 309.12-3.5 309.97-3.5L309.97-3.5Q311.12-3.5 312.04-4.8 312.97-6.1 313.57-8.95L313.57-8.95 315.42-8.95Q314.87-5.8 314.02-3.98 313.17-2.15 312.22-1.2 311.27-0.25 310.32 0.03 309.37 0.3 308.57 0.3L308.57 0.3Q306.97 0.3 305.87-0.33 304.77-0.95 304.07-2 303.37-3.05 303.04-4.45 302.72-5.85 302.72-7.35L302.72-7.35Q302.72-7.8 302.74-9.03 302.77-10.25 302.79-11.65 302.82-13.05 302.84-14.3 302.87-15.55 302.87-16.05L302.87-16.05Q302.87-17.65 302.62-18.7 302.37-19.75 301.92-20.35 301.47-20.95 300.89-21.2 300.32-21.45 299.67-21.45L299.67-21.45Q298.12-21.45 296.99-20.2 295.87-18.95 295.17-16L295.17-16 295.17 0 290.17 0 290.17-34.3ZM313.56-34.3L318.56-35 318.56-8Q318.56-7.5 318.61-6.75 318.66-6 318.89-5.28 319.11-4.55 319.56-4.03 320.01-3.5 320.81-3.5L320.81-3.5Q323.26-3.5 324.41-8.95L324.41-8.95 326.26-8.95Q325.71-5.8 324.86-3.98 324.01-2.15 323.06-1.2 322.11-0.25 321.11 0.03 320.11 0.3 319.31 0.3L319.31 0.3Q317.56 0.3 316.46-0.38 315.36-1.05 314.71-2.1 314.06-3.15 313.81-4.45 313.56-5.75 313.56-6.95L313.56-6.95 313.56-34.3ZM336.21-25L341.21-25 341.21-1.05Q342.46-1.45 343.44-1.95 344.41-2.45 345.14-3.3 345.86-4.15 346.34-5.5 346.81-6.85 347.06-8.95L347.06-8.95 348.91-8.95Q348.51-6.3 347.89-4.63 347.26-2.95 346.34-1.93 345.41-0.9 344.14-0.33 342.86 0.25 341.21 0.75L341.21 0.75 341.21 3.95Q341.21 6.3 340.71 7.93 340.21 9.55 339.34 10.58 338.46 11.6 337.34 12.05 336.21 12.5 334.96 12.5L334.96 12.5Q332.46 12.5 331.06 11.08 329.66 9.65 329.66 7.6L329.66 7.6Q329.66 6.3 330.24 5.25 330.81 4.2 331.74 3.33 332.66 2.45 333.84 1.78 335.01 1.1 336.21 0.6L336.21 0.6 336.21-2.55Q335.21-1.1 333.94-0.4 332.66 0.3 331.36 0.3L331.36 0.3Q329.91 0.3 328.61-0.1 327.31-0.5 326.36-1.43 325.41-2.35 324.86-3.83 324.31-5.3 324.31-7.45L324.31-7.45 324.31-25 329.31-25 329.31-8Q329.31-5.55 330.16-4.53 331.01-3.5 332.31-3.5L332.31-3.5Q333.01-3.5 333.71-3.85 334.41-4.2 334.96-4.88 335.51-5.55 335.86-6.5 336.21-7.45 336.21-8.7L336.21-8.7 336.21-25ZM334.01 9.9L334.01 9.9Q335.36 9.9 335.79 8.88 336.21 7.85 336.21 6.1L336.21 6.1 336.21 2.6Q333.71 3.75 332.66 4.88 331.61 6 331.61 7.4L331.61 7.4Q331.61 8.55 332.24 9.22 332.86 9.9 334.01 9.9Z" opacity="1" transform="matrix(1,0,0,1,0,0)" fill="#712689" class="slogan-text-1" data-fill-palette-color="secondary" id="text-1"></path></svg></g></svg></g></svg></g></svg></g><g><svg viewBox="0 0 214.8444439652835 214.8444439652835" height="214.8444439652835" width="214.8444439652835"><g><svg></svg></g><g id="icon-0"><svg viewBox="0 0 214.8444439652835 214.8444439652835" height="214.8444439652835" width="214.8444439652835"><g><path d="M0 107.422c0-59.328 48.095-107.422 107.422-107.422 59.328 0 107.422 48.095 107.422 107.422 0 59.328-48.095 107.422-107.422 107.422-59.328 0-107.422-48.095-107.422-107.422zM107.422 202.664c52.601 0 95.242-42.641 95.242-95.242 0-52.601-42.641-95.242-95.242-95.242-52.601 0-95.242 42.641-95.242 95.242 0 52.601 42.641 95.242 95.242 95.242z" data-fill-palette-color="accent" fill="#712689" stroke="transparent"></path></g><g transform="matrix(1,0,0,1,58.80360502817319,81.7564540923778)"><svg viewBox="0 0 97.23723390893711 51.3315357805279" height="51.3315357805279" width="97.23723390893711"><g><svg xmlns="http://www.w3.org/2000/svg" xmlns:xlink="http://www.w3.org/1999/xlink" version="1.1" x="0" y="0" viewBox="0 0.001 100 52.79" enable-background="new 0 0 100 52.792" xml:space="preserve" width="97.23723390893711" height="51.3315357805279" class="icon-cg-0" data-fill-palette-color="accent" id="cg-0"><g fill="#712689" data-fill-palette-color="accent"><g fill="#712689" data-fill-palette-color="accent"><g fill="#712689" data-fill-palette-color="accent"><path fill="#712689" d="M9.22 15.981v-4.62c0.73 0.2 1.26 0.41 1.57 0.63 0.53 0.38 0.8 0.94 0.8 1.67 0 0.47-0.1 0.87-0.29 1.23C10.91 15.571 10.22 15.941 9.22 15.981z" data-fill-palette-color="accent"></path><path fill="#712689" d="M8.39 11.151v4.79c-1-0.08-1.67-0.45-2.04-1.12-0.21-0.37-0.33-0.95-0.38-1.75H4.41c0 1 0.17 1.8 0.5 2.4 0.61 1.09 1.77 1.69 3.48 1.81v1.7h0.83v-1.7c1.06-0.12 1.87-0.36 2.44-0.72 1.01-0.66 1.52-1.77 1.52-3.33 0-1.08-0.4-1.89-1.19-2.44-0.49-0.33-1.41-0.69-2.77-1.07v-4.28c0.81 0.03 1.4 0.34 1.77 0.93 0.2 0.32 0.32 0.7 0.36 1.15h1.54c-0.03-0.99-0.36-1.79-0.98-2.4-0.63-0.6-1.52-0.95-2.69-1.03v-1.15H8.39v1.17c-1.18 0.01-2.1 0.37-2.75 1.09-0.65 0.71-0.98 1.52-0.98 2.41 0 0.99 0.3 1.77 0.91 2.34C6.18 10.511 7.11 10.911 8.39 11.151zM0 0.001h100v52.79H0V0.001zM66.19 26.401c0-10.78-7.25-19.51-16.19-19.51-8.94 0-16.19 8.73-16.19 19.51 0 10.77 7.25 19.5 16.19 19.5C58.94 45.901 66.19 37.171 66.19 26.401z" data-fill-palette-color="accent"></path><path fill="#712689" d="M8.39 5.421v4.13c-0.66-0.13-1.18-0.36-1.57-0.69-0.38-0.32-0.58-0.78-0.58-1.36 0-0.48 0.17-0.94 0.49-1.38C7.06 5.681 7.61 5.451 8.39 5.421z" data-fill-palette-color="accent"></path></g></g></g></svg></g></svg></g></svg></g></svg></g></svg></g><defs></defs></svg><rect width="395.52" height="126.05062805246857" fill="none" stroke="none" visibility="hidden"></rect></g></svg></g></svg>